<svg width="1060" height="986" viewBox="0 0 1060 986" fill="none" xmlns="http://www.w3.org/2000/svg">
<path d="M1000.9 667.187C895.069 899.022 615.705 998.601 396.819 981.623C337.055 976.987 216.807 967.66 122.916 884.447C-57.3942 724.642 -29.6248 390.605 142.984 193.942C165.213 168.616 319.075 -1.06573 558.84 1.2052C734.383 2.86813 857.595 95.8023 872.577 107.38C891.504 122.006 933.248 156.761 970.869 211.899C1059.27 341.454 1067.04 522.314 1000.9 667.187Z" fill="url(#paint0_linear_635_19)"/>
<path d="M303.591 440.716C290.154 395.2 301.326 339.958 304.029 289.926C305.459 263.473 304.364 237.503 296.582 211.888C288.845 186.421 272.237 159.802 280.932 132.586C298.451 77.7559 358.976 95.0144 396.925 130.548C440.963 171.782 460.924 245.002 482.764 300.657C495.931 334.209 513.643 368.151 522.759 402.824C537.861 460.263 528.972 502.317 502.71 532.993C477.523 562.416 434.75 572.735 397.505 558.433C363.859 545.514 325.268 514.142 303.591 440.716Z" fill="#BDD0FB"/>
<path d="M462.323 641.043C462.316 641.042 462.309 641.042 462.309 641.042C461.25 640.995 460.438 640.158 460.488 639.173C460.524 638.458 463.968 566.601 451.847 469.28C440.668 379.515 413.583 249.11 348.038 137.621C347.53 136.757 347.865 135.671 348.788 135.195C349.709 134.718 350.869 135.034 351.377 135.897C417.234 247.914 444.427 378.833 455.644 468.935C467.793 566.532 464.333 638.626 464.297 639.342C464.247 640.321 463.365 641.079 462.323 641.043Z" fill="url(#paint1_linear_635_19)"/>
<path d="M352.976 404.072C348.625 344.394 323.84 291.916 287.642 256.076C255.283 224.037 237.012 181.551 237.61 137.482C237.673 132.85 237.536 128.158 237.19 123.42C231.957 51.6473 180.791 -3.53068 122.908 0.176372C65.0245 3.88342 22.344 65.0726 27.5773 136.845C28.6475 151.521 31.6399 165.5 36.2181 178.423C50.8295 219.664 49.0465 264.674 29.4855 304.092C12.0043 339.32 3.30055 381.517 6.56317 426.258C11.429 492.988 41.842 550.72 85.1916 586.253C101.589 599.692 115.325 615.848 125.491 633.885C142.384 663.859 172.193 682.994 204.69 680.913C239.746 678.667 268.119 652.36 278.977 616.534C285.121 596.261 295.446 577.382 308.707 560.342C340.011 520.115 357.376 464.409 352.976 404.072Z" fill="#91B3FA"/>
<path d="M148.744 75.231C159.765 122.181 169.167 169.425 178.042 216.761C180.266 228.594 182.287 240.459 184.349 252.318L187.439 270.107L190.371 287.92C192.276 299.802 194.356 311.66 196.117 323.563L201.405 359.271C204.605 383.118 208.021 406.938 210.748 430.841C212.129 442.789 213.759 454.711 214.881 466.686L218.425 502.59C222.634 550.503 225.559 598.538 225.886 646.618L223.675 646.652L221.969 610.687L221.563 601.699L220.918 592.719L219.592 574.764L218.302 556.811C217.884 550.826 217.228 544.855 216.703 538.877C215.567 526.926 214.532 514.969 213.313 503.026C208.109 455.282 202.228 407.603 195.298 360.043C191.64 336.288 188.198 312.505 184.363 288.772L181.539 270.966L178.556 253.182C176.574 241.325 174.593 229.467 172.483 217.628C168.48 193.918 164.296 170.233 159.906 146.58C155.648 122.906 151.151 99.2644 146.577 75.6461L148.744 75.231Z" fill="#BDD0FB"/>
<g opacity="0.3">
<path d="M900.87 171.371C898.508 171.28 896.672 169.412 896.769 167.198C896.957 162.898 896.949 158.526 896.744 154.203C896.64 152.016 898.426 150.161 900.747 150.022C900.774 150.021 900.802 150.019 900.83 150.018C903.191 149.919 905.19 151.634 905.295 153.848C905.511 158.398 905.52 163.001 905.321 167.528C905.231 169.598 903.48 171.238 901.321 171.366C901.173 171.375 901.022 171.378 900.87 171.371ZM894.207 133.227C893.377 128.974 892.343 124.713 891.135 120.559C890.514 118.423 891.858 116.217 894.139 115.634C896.43 115.057 898.773 116.313 899.394 118.451C900.665 122.82 901.753 127.305 902.628 131.781C903.054 133.96 901.514 136.051 899.188 136.449C899.02 136.478 898.851 136.498 898.684 136.508C896.549 136.635 894.602 135.248 894.207 133.227ZM883.719 100.639C881.903 96.6756 879.882 92.7389 877.708 88.935C876.593 86.9824 877.378 84.5507 879.461 83.505C881.544 82.4625 884.138 83.1955 885.255 85.1481C887.543 89.1537 889.673 93.3006 891.584 97.4733C892.517 99.509 891.511 101.868 889.34 102.742C888.877 102.928 888.398 103.032 887.923 103.061C886.167 103.165 884.452 102.24 883.719 100.639ZM865.716 71.0668C862.999 67.5799 860.087 64.1639 857.064 60.9115C855.511 59.2405 855.698 56.7067 857.479 55.2519C859.263 53.7988 861.965 53.974 863.518 55.6415C866.701 59.0667 869.766 62.6635 872.628 66.3317C874.022 68.12 873.606 70.6301 871.698 71.9369C871.015 72.4047 870.234 72.6552 869.448 72.7022C868.037 72.7862 866.613 72.2146 865.716 71.0668ZM841.133 45.9908C837.665 43.1638 834.018 40.4353 830.294 37.8842C828.386 36.5753 827.971 34.0659 829.365 32.2779C830.761 30.4881 833.44 30.0995 835.347 31.4088C839.265 34.0931 843.102 36.9639 846.751 39.9386C848.535 41.3917 848.723 43.9254 847.171 45.5972C846.39 46.4398 845.316 46.9026 844.213 46.968C843.128 47.0326 842.018 46.7122 841.133 45.9908ZM811.243 26.6376C807.187 24.596 802.989 22.6932 798.761 20.9808C796.592 20.1018 795.593 17.7401 796.531 15.708C797.468 13.6737 799.987 12.7375 802.157 13.6162C806.606 15.4176 811.026 17.4218 815.294 19.5701C817.376 20.619 818.157 23.05 817.038 25.0023C816.312 26.2702 814.962 27.0224 813.535 27.1072C812.765 27.1531 811.972 27.0054 811.243 26.6376ZM652.316 24.7702C651.203 22.8158 651.992 20.3855 654.078 19.343C658.351 17.208 662.782 15.2187 667.247 13.4317C669.421 12.5612 671.936 13.5077 672.864 15.5455C673.793 17.5815 672.783 19.9386 670.61 20.8088C666.371 22.5056 662.164 24.3946 658.106 26.4229C657.55 26.7009 656.958 26.8525 656.366 26.8874C654.742 26.9839 653.131 26.2038 652.316 24.7702ZM777.539 13.9832C773.103 12.8386 768.561 11.8607 764.036 11.0778C761.712 10.6743 760.175 8.5818 760.604 6.40378C761.034 4.22435 763.266 2.796 765.592 3.1885C770.356 4.01378 775.14 5.04326 779.811 6.24904C782.089 6.83726 783.428 9.04496 782.801 11.1816C782.303 12.8757 780.718 14.0157 778.946 14.121C778.485 14.1482 778.01 14.104 777.539 13.9832ZM686.635 11.0693C686.018 8.93156 687.368 6.72846 689.65 6.14977C694.324 4.9659 699.115 3.95549 703.888 3.14399C706.214 2.73877 708.441 4.19679 708.863 6.37587C709.285 8.5553 707.741 10.6425 705.415 11.0386C700.878 11.8091 696.325 12.7693 691.884 13.8956C691.6 13.9673 691.316 14.0094 691.034 14.0263C689.045 14.1447 687.175 12.9417 686.635 11.0693ZM741.669 8.70616C737.074 8.52104 732.411 8.51892 727.808 8.70192C725.445 8.79696 723.45 7.07857 723.35 4.86451C723.251 2.68013 725.035 0.829605 727.353 0.691822C727.383 0.690056 727.414 0.688283 727.444 0.68793C732.29 0.493975 737.2 0.49539 742.035 0.689698C744.397 0.786499 746.229 2.65716 746.128 4.87086C746.033 6.93795 744.284 8.57297 742.128 8.70121C741.978 8.71004 741.823 8.71111 741.669 8.70616Z" fill="#91B3FA"/>
<path d="M631.234 42.3353C632.075 42.2851 632.91 42.0032 633.62 41.4743C635.348 40.1876 637.134 38.9151 638.928 37.6871C640.837 36.3817 641.256 33.8716 639.862 32.0829C638.469 30.2928 635.79 29.8978 633.882 31.2078C631.994 32.4976 630.117 33.8369 628.298 35.1904C626.447 36.5675 626.137 39.0917 627.607 40.8257C628.512 41.8958 629.883 42.4158 631.234 42.3353Z" fill="#91B3FA"/>
</g>
<g opacity="0.3">
<path d="M568.836 149.743C570.898 149.62 572.618 148.111 572.821 146.122C573.031 144.064 573.291 141.975 573.594 139.914C573.916 137.719 572.278 135.695 569.937 135.393C567.586 135.09 565.435 136.626 565.113 138.82C564.795 140.99 564.521 143.19 564.299 145.357C564.074 147.563 565.799 149.521 568.152 149.733C568.383 149.754 568.612 149.756 568.836 149.743Z" fill="#91B3FA"/>
<path d="M736.734 320.988C734.371 321.021 732.427 319.251 732.393 317.034C732.359 314.819 734.246 313.002 736.612 312.966C741.111 312.906 745.678 312.664 750.238 312.248C752.579 312.028 754.684 313.648 754.913 315.853C755.142 318.058 753.42 320.019 751.067 320.234C749.092 320.415 747.121 320.563 745.155 320.68C742.351 320.847 739.518 320.951 736.734 320.988ZM768.924 313.668C768.38 311.513 769.802 309.351 772.102 308.841C776.518 307.859 780.937 306.693 785.237 305.373C787.478 304.678 789.901 305.83 790.637 307.936C791.373 310.04 790.148 312.306 787.902 312.996C783.375 314.386 778.723 315.614 774.076 316.646C773.836 316.7 773.594 316.733 773.355 316.747C771.312 316.868 769.413 315.598 768.924 313.668ZM713.445 319.805C708.719 319.259 703.953 318.516 699.279 317.594C696.966 317.138 695.485 315.011 695.972 312.842C696.458 310.675 698.727 309.29 701.041 309.743C705.48 310.619 710.005 311.325 714.493 311.843C716.839 312.115 718.506 314.116 718.217 316.315C717.961 318.26 716.259 319.707 714.245 319.827C713.983 319.842 713.715 319.836 713.445 319.805ZM803.8 302.933C802.763 300.943 803.644 298.54 805.769 297.569C809.841 295.706 813.876 293.658 817.763 291.481C819.793 290.343 822.419 290.964 823.632 292.867C824.845 294.768 824.183 297.23 822.154 298.367C818.061 300.659 813.811 302.816 809.524 304.778C809.005 305.014 808.462 305.146 807.919 305.178C806.24 305.278 804.584 304.438 803.8 302.933ZM676.855 311.64C672.376 310.134 667.903 308.427 663.56 306.565C661.41 305.644 660.464 303.265 661.446 301.251C662.428 299.234 664.968 298.348 667.118 299.269C671.244 301.036 675.492 302.659 679.746 304.089C681.972 304.837 683.128 307.134 682.33 309.22C681.735 310.773 680.222 311.771 678.571 311.869C678.005 311.903 677.422 311.831 676.855 311.64ZM643.064 296.152C639.034 293.759 635.066 291.178 631.268 288.482C629.384 287.143 629.014 284.628 630.441 282.862C631.871 281.093 634.555 280.747 636.437 282.087C640.046 284.649 643.817 287.101 647.646 289.376C649.642 290.562 650.235 293.04 648.97 294.912C648.207 296.039 646.943 296.689 645.623 296.767C644.751 296.819 643.856 296.623 643.064 296.152ZM613.675 274.13C610.295 270.969 607.021 267.639 603.943 264.235C602.414 262.544 602.638 260.014 604.441 258.581C606.247 257.147 608.946 257.359 610.473 259.048C613.398 262.284 616.509 265.447 619.721 268.451C621.395 270.015 621.398 272.555 619.728 274.123C618.961 274.844 617.975 275.233 616.971 275.293C615.788 275.363 614.58 274.975 613.675 274.13ZM590.112 246.624C587.552 242.848 585.135 238.925 582.928 234.965C581.833 233.002 582.644 230.578 584.74 229.552C586.831 228.528 589.42 229.288 590.515 231.251C592.61 235.01 594.906 238.734 597.338 242.322C598.606 244.192 598.016 246.67 596.021 247.858C595.391 248.233 594.696 248.434 594 248.476C592.493 248.565 590.981 247.903 590.112 246.624ZM573.566 214.921C571.961 210.719 570.527 206.398 569.302 202.075C568.696 199.933 570.056 197.735 572.341 197.168C574.619 196.602 576.969 197.874 577.576 200.015C578.738 204.122 580.101 208.227 581.626 212.218C582.422 214.303 581.264 216.6 579.039 217.346C578.651 217.476 578.257 217.551 577.866 217.575C576.01 217.685 574.224 216.643 573.566 214.921ZM564.861 180.623C564.425 177.36 564.092 174.043 563.87 170.767C563.79 169.58 563.724 168.397 563.672 167.215C563.574 165.002 565.377 163.091 567.769 163.041C570.131 162.948 572.126 164.668 572.224 166.882C572.275 168.005 572.337 169.131 572.413 170.259C572.624 173.374 572.94 176.525 573.354 179.628C573.647 181.826 571.983 183.831 569.638 184.105C569.55 184.115 569.462 184.124 569.374 184.129C567.134 184.262 565.142 182.739 564.861 180.623Z" fill="#91B3FA"/>
<path d="M838.994 286.697C839.844 286.647 840.684 286.36 841.398 285.825C843.205 284.466 845.017 283.046 846.781 281.603C848.563 280.146 848.747 277.612 847.193 275.943C845.639 274.274 842.937 274.099 841.154 275.557C839.478 276.927 837.758 278.276 836.042 279.566C834.198 280.951 833.902 283.476 835.38 285.205C836.288 286.264 837.651 286.778 838.994 286.697Z" fill="#91B3FA"/>
</g>
<path d="M847.079 218.349C847.576 217.698 847.578 216.824 847.083 216.172L832.983 197.57C837.316 187.718 840.004 177.148 840.773 166.206L862.168 155.345C862.919 154.964 863.328 154.179 863.188 153.39L858.41 126.389C858.271 125.599 857.612 124.98 856.771 124.847L832.781 121.04C828.285 110.916 822.1 101.724 814.605 93.7108L821.544 71.8391C821.787 71.0724 821.484 70.2454 820.79 69.7801L797.04 53.8535C796.346 53.3883 795.413 53.3865 794.717 53.85L774.869 67.0651C764.357 63.0037 753.078 60.4844 741.402 59.764L729.814 39.7128C729.408 39.0094 728.57 38.6251 727.728 38.7561L698.917 43.2337C698.074 43.3648 697.414 43.982 697.272 44.7702L693.21 67.2541C682.408 71.4681 672.6 77.2645 664.049 84.2886L640.712 77.7853C639.894 77.5574 639.012 77.8407 638.515 78.4915L621.521 100.75C621.025 101.401 621.023 102.275 621.517 102.927L635.618 121.529C631.285 131.381 628.597 141.951 627.828 152.894L606.433 163.754C605.682 164.135 605.272 164.92 605.412 165.709L610.19 192.711C610.33 193.5 610.988 194.119 611.83 194.253L635.82 198.059C640.316 208.184 646.502 217.375 653.996 225.389L647.057 247.26C646.814 248.027 647.116 248.854 647.811 249.319L671.562 265.246C672.256 265.711 673.188 265.713 673.884 265.249L693.733 252.034C704.245 256.096 715.523 258.615 727.199 259.335L738.788 279.387C739.194 280.089 740.032 280.474 740.874 280.343L769.684 275.865C770.526 275.734 771.187 275.117 771.329 274.329L775.391 251.845C786.194 247.631 796.001 241.834 804.552 234.811L827.889 241.314C828.707 241.542 829.59 241.258 830.086 240.608L847.079 218.349Z" fill="#91B3FA"/>
<path d="M731.868 186.966C715.738 185.709 703.705 172.389 705.045 157.269C705.694 149.946 709.348 143.297 715.333 138.55C721.317 133.803 728.916 131.521 736.731 132.132C752.862 133.39 764.895 146.71 763.554 161.829C762.334 175.583 750.46 186.157 736.179 187.007C734.763 187.091 733.322 187.079 731.868 186.966ZM719.758 143.449C715.169 147.09 712.368 152.187 711.87 157.803C710.842 169.393 720.068 179.608 732.435 180.571C744.806 181.539 755.702 172.888 756.73 161.296C757.758 149.706 748.532 139.491 736.164 138.528C735.043 138.44 733.929 138.431 732.826 138.497C728.037 138.782 723.488 140.491 719.758 143.449Z" fill="#BDD0FB"/>
<path d="M738.266 226.699C740.718 226.553 743.178 226.291 745.635 225.909C746.409 225.789 747.181 225.657 747.95 225.514C751.743 224.806 755.469 223.817 759.072 222.561C759.121 222.544 759.17 222.527 759.22 222.51C759.359 222.461 759.498 222.412 759.637 222.361C759.907 222.265 760.177 222.166 760.446 222.066C761.153 221.805 761.571 221.15 761.526 220.474C761.515 220.311 761.476 220.145 761.408 219.984C761.06 219.16 760.065 218.759 759.186 219.083C754.662 220.76 749.915 221.991 745.076 222.742C721.04 226.482 697.803 217.992 682.617 202.146C674.168 193.333 668.212 182.243 665.996 169.714C665.607 167.517 665.339 165.318 665.192 163.126C664.194 148.37 668.605 133.862 677.909 121.677C688.596 107.678 704.46 98.418 722.577 95.6023C759.996 89.7904 795.455 113.579 801.657 148.63C802.04 150.791 802.304 152.963 802.45 155.135C803.086 164.547 801.517 173.986 797.821 182.767C797.725 182.994 797.689 183.229 797.705 183.457C797.746 184.058 798.147 184.613 798.785 184.848C799.666 185.171 800.659 184.771 801.006 183.944C804.887 174.724 806.535 164.815 805.868 154.934C805.714 152.654 805.436 150.375 805.036 148.106C798.524 111.305 761.271 86.336 722.018 92.4362C702.997 95.3921 686.344 105.114 675.125 119.81C665.357 132.603 660.727 147.833 661.774 163.323C661.93 165.625 662.211 167.934 662.618 170.239C665.773 188.067 676.145 203.674 691.825 214.189C705.478 223.345 721.734 227.683 738.266 226.699Z" fill="#BDD0FB"/>
<g opacity="0.3">
<path d="M1054.23 268.192C1055.37 268.124 1056.38 267.364 1056.64 266.264C1057.14 264.213 1057.57 262.119 1057.93 260.042C1058.17 258.692 1057.19 257.419 1055.75 257.197C1054.31 256.97 1052.95 257.892 1052.72 259.241C1052.37 261.221 1051.96 263.216 1051.48 265.175C1051.16 266.508 1052.06 267.834 1053.48 268.137C1053.73 268.19 1053.99 268.206 1054.23 268.192Z" fill="#91B3FA"/>
<path d="M1056.6 249.299C1055.14 249.245 1054.01 248.096 1054.06 246.727C1054.2 243.276 1054.15 239.779 1053.92 236.333C1053.87 235.606 1053.81 234.877 1053.75 234.147C1053.63 232.784 1054.7 231.585 1056.16 231.47C1057.54 231.412 1058.89 232.367 1059.02 233.731C1059.09 234.496 1059.15 235.258 1059.2 236.019C1059.44 239.631 1059.49 243.298 1059.34 246.917C1059.29 248.198 1058.21 249.215 1056.87 249.295C1056.78 249.3 1056.69 249.3 1056.6 249.299ZM1051.8 221.697C1050.89 217.599 1049.7 213.517 1048.25 209.566C1047.78 208.271 1048.52 206.864 1049.9 206.421C1051.28 205.982 1052.79 206.668 1053.26 207.964C1054.77 212.104 1056.02 216.384 1056.98 220.681C1057.28 222.021 1056.36 223.334 1054.93 223.615C1054.81 223.64 1054.68 223.654 1054.55 223.662C1053.26 223.739 1052.08 222.918 1051.8 221.697ZM1043.13 197.936C1041.17 194.179 1038.95 190.498 1036.51 186.992C1035.71 185.846 1036.05 184.311 1037.28 183.564C1038.5 182.815 1040.14 183.137 1040.93 184.285C1043.49 187.96 1045.83 191.824 1047.88 195.763C1048.52 196.993 1047.98 198.477 1046.66 199.077C1046.34 199.221 1046.01 199.302 1045.67 199.322C1044.64 199.384 1043.61 198.865 1043.13 197.936ZM1028.49 176.899C1025.61 173.7 1022.48 170.64 1019.21 167.809C1018.14 166.879 1018.07 165.312 1019.06 164.307C1020.05 163.305 1021.73 163.24 1022.8 164.167C1026.23 167.139 1029.5 170.346 1032.53 173.7C1033.47 174.745 1033.33 176.31 1032.21 177.193C1031.76 177.547 1031.23 177.739 1030.68 177.772C1029.87 177.82 1029.05 177.522 1028.49 176.899ZM1008.81 159.848C1005.19 157.404 1001.37 155.149 997.458 153.141C996.178 152.485 995.709 150.979 996.41 149.778C997.111 148.578 998.718 148.136 999.999 148.796C1004.1 150.899 1008.1 153.265 1011.9 155.824C1013.09 156.624 1013.36 158.172 1012.5 159.282C1012.02 159.909 1011.29 160.263 1010.52 160.309C1009.93 160.344 1009.33 160.195 1008.81 159.848ZM985.317 147.791C981.17 146.248 976.884 144.935 972.572 143.887C971.159 143.544 970.31 142.191 970.677 140.867C971.044 139.544 972.481 138.75 973.9 139.09C978.42 140.188 982.919 141.567 987.269 143.185C988.624 143.691 989.289 145.13 988.75 146.401C988.359 147.321 987.447 147.901 986.459 147.96C986.082 147.983 985.693 147.931 985.317 147.791ZM959.399 141.487C954.989 140.947 950.485 140.66 946.009 140.635C944.549 140.625 943.373 139.51 943.383 138.142C943.39 136.774 944.58 135.692 946.043 135.678C950.734 135.707 955.458 136.008 960.082 136.574C961.53 136.752 962.551 137.996 962.362 139.352C962.196 140.545 961.147 141.429 959.91 141.503C959.744 141.513 959.572 141.509 959.399 141.487ZM916.196 141.74C915.85 140.41 916.719 139.071 918.138 138.747C922.065 137.849 926.111 137.138 930.154 136.633C930.768 136.553 931.38 136.482 931.994 136.415C933.431 136.217 934.757 137.23 934.923 138.592C935.092 139.951 934.052 141.179 932.601 141.338C932.026 141.399 931.45 141.468 930.864 141.544C926.994 142.026 923.134 142.704 919.39 143.559C919.236 143.595 919.081 143.617 918.929 143.626C917.673 143.701 916.504 142.924 916.196 141.74Z" fill="#91B3FA"/>
</g>
<g opacity="0.3">
<path d="M950.887 349.573C946.286 349.791 941.631 349.745 937.05 349.443C935.594 349.346 934.497 348.162 934.6 346.796C934.702 345.43 935.976 344.416 937.424 344.5C941.792 344.79 946.233 344.831 950.623 344.624C952.08 344.554 953.322 345.607 953.395 346.973C953.468 348.328 952.364 349.485 950.924 349.571C950.924 349.571 950.899 349.572 950.887 349.573ZM961.597 346.119C961.349 344.771 962.315 343.489 963.753 343.258C968.081 342.559 972.408 341.609 976.613 340.43C978.005 340.044 979.485 340.783 979.903 342.096C980.321 343.407 979.526 344.785 978.128 345.179C973.721 346.413 969.186 347.41 964.65 348.14C964.555 348.155 964.461 348.166 964.365 348.172C963.036 348.252 961.828 347.38 961.597 346.119ZM923.321 347.736C918.798 346.905 914.29 345.808 909.923 344.475C908.535 344.051 907.776 342.651 908.228 341.352C908.68 340.049 910.167 339.343 911.56 339.762C915.725 341.034 920.024 342.08 924.339 342.876C925.772 343.139 926.705 344.441 926.424 345.782C926.188 346.911 925.168 347.709 923.999 347.778C923.777 347.792 923.551 347.779 923.321 347.736ZM987.648 339.43C987.061 338.177 987.671 336.715 989.007 336.166C993.029 334.513 996.981 332.612 1000.76 330.514C1002.01 329.819 1003.63 330.207 1004.38 331.38C1005.12 332.557 1004.71 334.077 1003.45 334.775C999.495 336.977 995.348 338.971 991.13 340.704C990.838 340.823 990.536 340.889 990.236 340.907C989.16 340.971 988.106 340.408 987.648 339.43ZM897.055 339.713C892.887 337.89 888.795 335.809 884.89 333.527C883.651 332.803 883.273 331.274 884.046 330.113C884.818 328.952 886.448 328.595 887.689 329.322C891.412 331.5 895.315 333.484 899.291 335.221C900.614 335.799 901.187 337.273 900.569 338.515C900.146 339.364 899.272 339.884 898.338 339.939C897.912 339.965 897.471 339.895 897.055 339.713ZM873.606 326.017C870.018 323.306 866.574 320.367 863.369 317.282C862.351 316.303 862.373 314.735 863.419 313.781C864.463 312.827 866.138 312.846 867.158 313.828C870.214 316.768 873.5 319.572 876.924 322.158C878.061 323.017 878.239 324.577 877.323 325.643C876.839 326.205 876.146 326.518 875.431 326.56C874.795 326.598 874.141 326.421 873.606 326.017ZM854.329 307.451C851.535 304.012 848.943 300.382 846.624 296.666C845.888 295.483 846.312 293.966 847.573 293.276C848.833 292.585 850.452 292.986 851.189 294.164C853.399 297.709 855.871 301.17 858.536 304.447C859.42 305.536 859.196 307.091 858.033 307.919C857.603 308.228 857.104 308.391 856.602 308.421C855.75 308.472 854.886 308.136 854.329 307.451Z" fill="#91B3FA"/>
<path d="M1013.56 327.929C1014.07 327.898 1014.58 327.73 1015.01 327.416C1016.8 326.119 1018.56 324.766 1020.24 323.396C1021.33 322.497 1021.45 320.931 1020.49 319.899C1019.53 318.873 1017.86 318.764 1016.76 319.661C1015.16 320.968 1013.48 322.258 1011.78 323.497C1010.62 324.334 1010.41 325.891 1011.3 326.972C1011.86 327.647 1012.72 327.979 1013.56 327.929Z" fill="#91B3FA"/>
</g>
<path d="M1020.58 281.223C1020.91 280.788 1020.91 280.203 1020.58 279.767L1011.15 267.319C1014.05 260.727 1015.85 253.653 1016.36 246.331L1030.68 239.064C1031.18 238.809 1031.45 238.284 1031.36 237.755L1028.16 219.687C1028.07 219.159 1027.63 218.745 1027.07 218.655L1011.01 216.108C1008 209.333 1003.86 203.183 998.85 197.821L1003.49 183.185C1003.66 182.672 1003.45 182.119 1002.99 181.807L987.096 171.15C986.631 170.839 986.007 170.837 985.541 171.148L972.26 179.99C965.226 177.273 957.678 175.587 949.866 175.105L942.111 161.688C941.839 161.217 941.279 160.96 940.716 161.047L921.437 164.044C920.873 164.131 920.431 164.544 920.336 165.072L917.618 180.117C910.389 182.937 903.826 186.815 898.105 191.516L882.489 187.164C881.941 187.012 881.351 187.201 881.019 187.636L869.647 202.531C869.315 202.966 869.314 203.551 869.644 203.988L879.08 216.436C876.18 223.028 874.382 230.101 873.867 237.423L859.551 244.691C859.048 244.945 858.774 245.471 858.867 245.999L862.064 264.067C862.158 264.595 862.599 265.01 863.161 265.099L879.214 267.646C882.223 274.421 886.362 280.572 891.377 285.934L886.734 300.569C886.571 301.082 886.774 301.635 887.238 301.947L903.131 312.604C903.595 312.916 904.219 312.916 904.685 312.607L917.967 303.763C925.001 306.481 932.548 308.167 940.361 308.649L948.115 322.067C948.387 322.537 948.948 322.794 949.512 322.707L968.791 319.71C969.354 319.623 969.796 319.21 969.891 318.682L972.609 303.637C979.838 300.817 986.4 296.938 992.122 292.239L1007.74 296.59C1008.29 296.743 1008.88 296.553 1009.21 296.118L1020.58 281.223Z" fill="#91B3FA"/>
<path d="M943.458 260.553C938.133 260.14 933.301 257.807 929.85 253.986C926.4 250.167 924.742 245.315 925.186 240.326C926.099 230.029 935.766 222.362 946.77 223.201C957.759 224.06 965.954 233.135 965.039 243.429C964.598 248.418 962.109 252.947 958.033 256.181C954.719 258.81 950.678 260.327 946.422 260.581C945.443 260.638 944.452 260.63 943.458 260.553ZM930.454 240.734C930.128 244.405 931.347 247.974 933.886 250.785C936.424 253.595 939.979 255.31 943.894 255.616C947.81 255.916 951.617 254.778 954.618 252.398C957.616 250.021 959.446 246.688 959.771 243.02C960.443 235.445 954.415 228.771 946.333 228.139C945.604 228.083 944.883 228.077 944.173 228.119C937.016 228.545 931.065 233.845 930.454 240.734Z" fill="#BDD0FB"/>
<path d="M947.912 288.206C949.582 288.107 951.258 287.927 952.943 287.667C956.287 287.148 959.579 286.31 962.734 285.172C962.876 285.12 963.017 285.067 963.158 285.016C964.251 284.611 964.895 283.601 964.826 282.557C964.809 282.304 964.749 282.048 964.644 281.8C964.107 280.528 962.571 279.911 961.214 280.409C958.279 281.497 955.206 282.293 952.08 282.777H952.079C951.907 282.805 951.735 282.829 951.564 282.854C944.155 283.937 936.739 283.249 929.861 280.943C926.128 279.691 922.552 277.959 919.223 275.769C919.196 275.752 919.169 275.734 919.142 275.716C919.06 275.66 918.977 275.607 918.896 275.551C909.227 269.067 902.83 259.442 900.885 248.45C900.632 247.027 900.459 245.605 900.363 244.185C899.718 234.633 902.574 225.241 908.597 217.35C915.516 208.289 925.785 202.296 937.513 200.473C949.235 198.656 961.027 201.218 970.697 207.7C980.365 214.184 986.763 223.809 988.707 234.801C988.956 236.2 989.126 237.606 989.221 239.011C989.633 245.105 988.617 251.214 986.224 256.899C986.077 257.249 986.02 257.611 986.045 257.964C986.108 258.891 986.729 259.749 987.713 260.112C989.072 260.611 990.606 259.991 991.143 258.715C993.82 252.355 994.957 245.518 994.498 238.702C994.391 237.128 994.201 235.556 993.924 233.992C991.747 221.692 984.591 210.924 973.772 203.67C962.955 196.417 949.776 193.535 936.649 195.584C923.526 197.623 912.037 204.328 904.297 214.469C897.558 223.295 894.363 233.803 895.086 244.489C895.193 246.076 895.386 247.669 895.668 249.26C899.883 273.07 922.743 289.704 947.912 288.206Z" fill="#BDD0FB"/>
<path d="M55.4037 809.94C55.4037 818.695 63.0538 825.858 72.4044 825.858H991.719C1001.07 825.858 1008.72 818.695 1008.72 809.94L1016.37 314.815C1016.37 306.061 1005.36 288.97 985.194 290.254L86.738 268.467C75.0062 268.182 63.663 272.414 55.3551 280.175C47.0472 287.935 42.5014 298.546 42.7788 309.531L55.4037 809.94Z" fill="url(#paint2_linear_635_19)"/>
<path d="M72.1877 794.669C72.1877 802.959 79.4254 809.743 88.2712 809.743H969.549C978.395 809.743 985.632 802.959 985.632 794.669L992.851 345.19C992.001 318.142 966.697 308.42 951.359 308.994L90.2713 287.344C82.0294 287.136 74.0604 290.112 68.2228 295.57C62.3851 301.027 59.1745 308.495 59.3815 316.22L72.1877 794.669Z" fill="#7D97F4"/>
<path d="M96.639 777.098C96.639 784.596 103.365 790.732 111.587 790.732H930.625C938.846 790.732 945.573 784.596 945.573 777.098L952.281 370.557C951.491 346.092 927.975 337.299 913.72 337.818L113.446 318.236C105.786 318.048 98.3798 320.74 92.9545 325.676C87.5293 330.611 84.5456 337.366 84.7375 344.353L96.639 777.098Z" fill="#91B3FA"/>
<path d="M976.109 519.366C976.098 519.366 976.085 519.366 976.074 519.366C974.771 519.353 973.732 518.578 973.752 517.636L974.322 489.508C974.341 488.575 975.393 487.829 976.677 487.829C976.689 487.829 976.701 487.829 976.713 487.829C978.015 487.842 979.055 488.616 979.035 489.559L978.465 517.687C978.446 518.619 977.394 519.366 976.109 519.366Z" fill="url(#paint3_linear_635_19)"/>
<path d="M977.509 450.439C977.498 450.439 977.486 450.439 977.474 450.439C976.172 450.425 975.132 449.649 975.152 448.708L977.339 340.979C977.298 334.58 974.612 329.47 969.355 325.828C959.541 319.029 943.962 319.376 943.306 319.398L668.083 314.061C666.782 314.037 665.755 313.252 665.79 312.311C665.825 311.371 666.824 310.569 668.21 310.654L943.27 315.992C944.981 315.919 961.569 315.711 972.616 323.365C978.83 327.672 982.005 333.604 982.052 340.996L979.864 448.759C979.845 449.692 978.794 450.439 977.509 450.439Z" fill="url(#paint4_linear_635_19)"/>
<path d="M20.1155 861.726H1035.68C1036.85 861.726 1037.81 860.827 1037.81 859.729V825.453C1037.81 824.354 1036.85 823.456 1035.68 823.456H20.1155C18.9431 823.456 17.9841 824.354 17.9841 825.453V859.729C17.9841 860.827 18.9431 861.726 20.1155 861.726Z" fill="url(#paint5_linear_635_19)"/>
<path d="M624.778 649.046C613.631 683.456 579.474 708.565 539.171 708.565C489.864 708.565 449.744 670.964 449.744 624.742C449.744 599.317 461.892 576.498 481.03 561.107L477.249 526.355C441.363 546.264 417.262 582.915 417.262 624.742C417.262 687.743 471.947 739.006 539.171 739.006C581.722 739.006 619.257 718.464 641.071 687.402L624.778 649.046Z" fill="white"/>
<path d="M680.361 704.569C678.343 704.569 676.325 704.217 674.409 703.511C670.238 701.971 666.932 698.223 665.272 694.32L623.874 596.232H519.253C510.921 596.232 503.94 590.981 503.096 583.213L488.625 450.413C487.715 442.05 494.212 434.745 503.136 433.893C512.052 433.037 520.03 439.539 520.938 447.901L533.923 567.761H634.887C641.536 567.761 647.515 571.235 649.975 577.024L689.053 668.828L720.196 654.956C728.307 651.362 737.987 654.575 741.817 662.175C745.649 669.775 742.181 678.827 734.071 682.418L687.298 703.12C685.107 704.091 682.736 704.569 680.361 704.569Z" fill="white"/>
<path d="M608.902 539.289H512.757C503.788 539.289 496.517 532.669 496.517 524.263C496.517 515.857 503.788 509.237 512.757 509.237H608.902C617.871 509.237 625.143 515.857 625.143 524.263C625.142 532.669 617.871 539.289 608.902 539.289Z" fill="white"/>
<path d="M515.789 464.015C535.163 464.015 550.869 449.296 550.869 431.139C550.869 412.981 535.163 398.262 515.789 398.262C496.415 398.262 480.709 412.981 480.709 431.139C480.709 449.296 496.415 464.015 515.789 464.015Z" fill="white"/>
<path d="M112.582 546.609C110.962 606.029 105.708 810.993 108.216 883.626C108.482 891.321 115.266 897.497 123.728 897.749C165.584 898.994 285.99 902.151 354.451 899.539C368.711 898.995 380.05 888.493 380.346 875.519C381.769 813.15 384.907 637.728 377.447 557.367C376.553 547.739 368.241 540.071 357.667 539.109C312.085 534.963 191.018 524.828 131.872 528.318C121.205 528.948 112.847 536.893 112.582 546.609Z" fill="url(#paint6_linear_635_19)"/>
<path d="M129.589 565.072C127.303 613.737 120.092 775.634 122.381 835.5C122.715 844.25 130.3 851.326 139.914 851.837C179.493 853.943 281.011 858.587 339.064 854.36C349.518 853.599 357.721 845.912 358.285 836.391C361.226 786.742 369.673 635.994 367.48 576.798C367.13 567.355 359.085 559.643 348.735 558.798C305.916 555.302 195.943 546.985 146.612 549.432C137.35 549.892 129.985 556.647 129.589 565.072Z" fill="#7D97F4"/>
<path d="M135.02 573.474C132.859 619.358 126.043 772.006 128.207 828.452C128.523 836.702 135.693 843.373 144.78 843.856C182.193 845.841 278.156 850.22 333.033 846.234C342.915 845.517 350.669 838.269 351.202 829.292C353.983 782.48 361.968 640.343 359.894 584.53C359.563 575.626 351.958 568.355 342.175 567.558C301.699 564.262 197.743 556.42 151.111 558.728C142.357 559.161 135.394 565.53 135.02 573.474Z" fill="#91B3FA"/>
<path opacity="0.5" d="M216.023 538.702C216.023 540.525 217.586 542.029 219.588 542.124C229.474 542.595 257.323 543.927 269.769 544.583C272.223 544.713 274.149 542.707 273.684 540.512L273.604 540.138C273.287 538.64 271.921 537.513 270.25 537.374C261.837 536.673 236.452 534.73 219.633 535.276C217.612 535.341 216.023 536.863 216.023 538.702Z" fill="white"/>
<path d="M297.401 637.209L291.193 632.432C289.661 631.253 287.304 631.403 285.93 632.768L187.062 730.882C185.636 732.298 185.76 734.406 187.34 735.589L193.743 740.383C195.321 741.564 197.752 741.373 199.172 739.957L297.689 641.811C299.06 640.446 298.931 638.386 297.401 637.209Z" fill="white"/>
<path d="M252.317 652.036V655.625L197.039 710.924H188.371C184.937 710.924 182.152 709.485 182.152 706.267V666.527C182.152 663.31 184.937 660.557 188.371 660.557H213.502V660.823C223.952 656.142 233.975 651.473 244.155 646.792C246.076 645.915 248.171 646.028 249.983 647.085C251.808 648.154 252.317 650.022 252.317 652.036Z" fill="white"/>
<path d="M229.432 719.33L252.317 696.197V720.759C252.317 722.773 251.63 724.641 249.805 725.709C247.992 726.767 245.783 726.88 243.862 725.991C239.024 723.774 234.258 721.547 229.432 719.33Z" fill="white"/>
<path d="M296.239 687.691C296.239 700.99 291.041 713.153 282.456 722.503C280.692 724.416 277.571 724.562 275.662 722.761L275.469 722.592C273.777 720.995 273.645 718.441 275.217 716.731C282.396 708.945 286.743 698.796 286.743 687.691C286.743 680.479 284.905 673.672 281.64 667.652L288.495 660.823C293.418 668.722 296.239 677.903 296.239 687.691Z" fill="white"/>
<path d="M280.416 687.691C280.416 696.883 276.982 705.311 271.255 711.938C269.539 713.918 266.358 714.041 264.425 712.241L264.4 712.208C262.708 710.633 262.624 708.124 264.112 706.379C268.506 701.271 271.147 694.768 271.147 687.691C271.147 684.799 270.703 682.009 269.874 679.365L276.982 672.288C279.191 677.002 280.416 682.212 280.416 687.691Z" fill="white"/>
<path d="M311.691 714.686C310.764 754.487 307.755 891.775 309.191 940.426C309.343 945.58 313.228 949.716 318.074 949.885C342.043 950.719 410.994 952.834 450.198 951.085C458.364 950.72 464.858 943.686 465.027 934.996C465.842 893.22 467.639 775.719 463.367 721.893C462.855 715.443 458.096 710.308 452.04 709.663C425.937 706.886 356.608 700.098 322.738 702.435C316.63 702.857 311.843 708.178 311.691 714.686Z" fill="url(#paint7_linear_635_19)"/>
<path d="M321.431 727.054C320.121 759.65 315.992 868.091 317.303 908.191C317.494 914.052 321.838 918.791 327.343 919.133C350.008 920.544 408.143 923.654 441.387 920.823C447.373 920.313 452.07 915.165 452.394 908.787C454.079 875.532 458.916 774.558 457.66 734.908C457.459 728.583 452.852 723.417 446.925 722.851C422.405 720.51 359.429 714.939 331.178 716.578C325.875 716.885 321.657 721.41 321.431 727.054Z" fill="#7D97F4"/>
<path d="M326.197 734.015C324.982 764.253 321.152 864.845 322.368 902.042C322.546 907.478 326.575 911.875 331.681 912.192C352.706 913.501 406.633 916.386 437.471 913.76C443.024 913.287 447.382 908.511 447.681 902.595C449.244 871.746 453.731 778.081 452.566 741.301C452.38 735.434 448.106 730.642 442.608 730.117C419.863 727.945 361.445 722.777 335.24 724.298C330.32 724.583 326.407 728.781 326.197 734.015Z" fill="#91B3FA"/>
<path opacity="0.5" d="M370.927 709.39C370.927 710.611 371.822 711.618 372.969 711.682C378.63 711.997 394.578 712.889 401.705 713.329C403.11 713.416 404.213 712.072 403.947 710.602L403.901 710.352C403.719 709.349 402.937 708.594 401.981 708.5C397.163 708.031 382.626 706.729 372.994 707.095C371.837 707.139 370.927 708.158 370.927 709.39Z" fill="white"/>
<path d="M416.808 803.285L407.064 813.684C407.591 815.192 407.902 816.786 407.962 818.435C408.315 828.14 400.004 836.249 389.353 836.558C388.141 836.597 386.958 836.525 385.806 836.364L381.668 840.778C384.239 841.027 386.855 841.109 389.516 841.032C408.915 840.459 425.495 831.208 434.564 817.782C429.982 811.861 423.91 806.897 416.808 803.285ZM388.068 801.25C389.019 801.227 389.957 801.276 390.88 801.381L394.969 797.032C392.652 796.821 390.297 796.731 387.905 796.776C368.338 797.156 351.328 806.39 341.905 820.049C346.552 825.936 352.658 830.875 359.742 834.472L370.007 823.558C369.596 822.221 369.352 820.822 369.299 819.378C368.943 809.587 377.363 801.474 388.068 801.25Z" fill="white"/>
<path d="M425.582 783.187L421.107 779.976C420.002 779.184 418.354 779.341 417.424 780.329L350.595 851.351C349.631 852.376 349.771 853.851 350.91 854.645L355.523 857.864C356.659 858.657 358.359 858.468 359.319 857.443L425.901 786.408C426.827 785.42 426.685 783.978 425.582 783.187Z" fill="white"/>
<path d="M828.033 655.029C832.753 661.317 837.992 667.31 843.374 673.113C848.433 678.569 853.728 683.845 859.349 688.806C862.854 691.898 865.665 695.908 869.921 698.212C873.066 699.914 873.261 699.412 875.327 697.263C878.656 693.8 882.451 691.863 886.227 695.01C889.178 697.468 893.103 699.731 894.832 703.165C896.682 706.838 894.141 727.563 887.54 726.093C887.516 726.088 857.875 719.477 826.213 661.34L828.033 655.029Z" fill="url(#paint8_linear_635_19)"/>
<path d="M834.293 668.697C834.202 669.613 837.863 670.247 839.029 666.341C838.709 664.645 838.139 657.219 836.742 656.065C829.3 649.92 816.029 643.007 816.029 643.007C814.545 645.116 816.491 646.505 816.491 646.505L823.116 650.665C822.425 652.795 821.417 654.678 821.302 657.11C821.216 658.951 821.947 660.754 823.261 662.15C824.579 663.552 826.354 665.362 827.954 666.736C830.982 669.337 834.293 668.697 834.293 668.697Z" fill="url(#paint9_linear_635_19)"/>
<path d="M834.546 660.057L832.101 656.494L826.27 653.594C825.36 654.285 824.976 655.203 826.46 656.646C827.943 658.089 831.2 665.476 831.2 665.476L834.546 660.057Z" fill="url(#paint10_linear_635_19)"/>
<path d="M903.763 758.622C896.719 772.412 943.34 781.435 984.406 787.591L985.162 695.086C985.162 695.086 991.446 655.852 962.774 651.499C945.884 647.488 945.884 647.525 945.884 647.525C945.884 647.525 924.281 644.591 906.213 651.555C888.145 658.519 874.746 696.3 874.746 696.3L894.589 717.765C894.943 718.148 895.614 718.009 895.76 717.522L902.53 697.833L903.763 758.622Z" fill="url(#paint11_linear_635_19)"/>
<path d="M943.131 691.127C943.336 690.779 943.439 690.361 943.549 689.986C944.052 688.271 944.918 686.544 945.575 684.853C945.894 684.031 946.213 683.209 946.532 682.386C946.771 681.771 947.399 680.802 947.399 680.154C949.724 674.167 952.049 668.18 954.373 662.193C954.447 662.004 954.341 661.794 954.137 661.725C953.933 661.657 953.709 661.755 953.634 661.944C952.746 664.22 951.866 666.498 950.982 668.775C949.319 673.057 947.657 677.339 945.994 681.621C945.274 683.475 944.555 685.329 943.835 687.183C943.594 687.802 943.274 688.393 943.017 689.007C942.876 689.342 942.787 689.696 942.656 690.03C942.649 690.049 942.335 690.794 942.243 690.632C942.399 690.908 942.659 691.241 942.964 691.363C943.027 691.29 943.082 691.211 943.131 691.127Z" fill="url(#paint12_linear_635_19)"/>
<path fill-rule="evenodd" clip-rule="evenodd" d="M897.205 608.42C897.205 608.42 899.526 602.328 893.612 601.242C887.697 600.156 893.34 616.333 893.34 616.333L897.205 608.42Z" fill="url(#paint13_linear_635_19)"/>
<path fill-rule="evenodd" clip-rule="evenodd" d="M944.495 624.95L946.832 648.825C946.832 648.825 933.29 656.187 921.64 649.751L923.709 628.898L944.495 624.95Z" fill="url(#paint14_linear_635_19)"/>
<path fill-rule="evenodd" clip-rule="evenodd" d="M894.471 607.976C894.471 607.976 888.536 598.519 896.096 593.546C896.096 593.546 892.041 585.224 899.71 579.205C899.71 579.205 911.924 552.604 937.564 571.264C937.564 571.264 959.64 565.155 966.742 590.701C966.742 590.701 974.083 594.535 970.721 604.079C970.721 604.079 971.545 639.485 938.222 627.55L894.471 607.976Z" fill="url(#paint15_linear_635_19)"/>
<path fill-rule="evenodd" clip-rule="evenodd" d="M905.444 588.199C905.444 588.199 877.196 627.807 906.382 639.94C933.927 651.39 945.534 625.089 945.534 625.089C945.534 625.089 957.647 613.412 953.578 604.421C949.51 595.429 912.329 583.278 905.444 588.199Z" fill="url(#paint16_linear_635_19)"/>
<path fill-rule="evenodd" clip-rule="evenodd" d="M948.289 618.851C948.289 618.851 920.642 610.707 923.006 595.513C923.006 595.513 918.217 595.958 916.747 590.709C916.747 590.709 903.18 602.066 899.604 594.124C899.604 594.124 901.98 574.459 918.555 580.832C935.13 587.205 950.271 593.686 954.708 598.223C959.145 602.76 962.829 613.739 948.289 618.851Z" fill="url(#paint17_linear_635_19)"/>
<path fill-rule="evenodd" clip-rule="evenodd" d="M941.908 628.625L946.82 616.061C946.82 616.061 956.31 612.003 955.06 618.838C953.81 625.673 945.282 629.448 941.908 628.625Z" fill="url(#paint18_linear_635_19)"/>
<path d="M851.48 821.822L796.746 913.378C796.324 914.084 795.381 914.349 794.615 913.977L743.683 889.232C741.076 887.966 740.5 884.707 742.532 882.72C744.293 880.999 747.072 880.611 749.292 881.775L791.708 904.03C792.502 904.446 793.506 904.158 793.915 903.396L834.104 828.525C834.375 828.021 834.925 827.703 835.528 827.703L851.48 821.822Z" fill="url(#paint19_linear_635_19)"/>
<path d="M877.824 770.382L788 800.365C786.083 801.005 784.67 802.536 784.278 804.395L765.782 879.983C767.258 885.056 770.49 884.745 777.644 880.315C788.326 858.117 803.349 835.438 802.884 823.075C803.777 820.633 806.071 818.867 808.816 818.509L861.654 811.613L877.824 770.382Z" fill="url(#paint20_linear_635_19)"/>
<path d="M778.098 877.868C772.749 881.656 769.361 882.317 766.116 878.608C755.113 880.098 750.358 883.735 750.276 888.978C761.135 890.988 771.975 891.434 782.775 888.578C782.461 883.893 781.201 877.739 778.098 877.868Z" fill="url(#paint21_linear_635_19)"/>
<path d="M915.095 776.623C903.092 794.288 852.988 816.47 824.652 822.183C814.339 815.631 804.885 806.633 801.248 795.7C815.889 785.256 874.712 769.396 903.046 760.974L915.095 776.623Z" fill="url(#paint22_linear_635_19)"/>
<path d="M991.267 796.18L1012.95 804.253L1012.16 684.358C1004.05 672.293 997.214 673.605 991.267 684.358V796.18Z" fill="url(#paint23_linear_635_19)"/>
<path d="M892.137 777.451L802.312 807.434C800.396 808.074 798.982 809.605 798.591 811.465L782.638 887.292C784.114 892.366 786.875 892.595 794.029 888.165C804.711 865.967 817.661 842.508 817.196 830.145C818.089 827.703 820.384 825.937 823.129 825.579L875.966 818.683L892.137 777.451Z" fill="url(#paint24_linear_635_19)"/>
<path d="M794.703 886.727C789.257 890.456 785.838 891.07 782.638 887.292C771.545 888.625 766.699 892.212 766.526 897.484C777.413 899.67 788.308 900.281 799.222 897.57C798.987 892.853 797.826 886.644 794.703 886.727Z" fill="url(#paint25_linear_635_19)"/>
<path d="M978.859 783.381C966.856 801.046 855.164 826.541 826.828 832.255C818.635 827.05 810.984 820.301 806.361 812.265C804.276 808.641 805.756 804.114 809.635 802.147C830.603 791.517 888.591 772.073 913.872 764.558L978.859 783.381Z" fill="url(#paint26_linear_635_19)"/>
<path d="M991.531 771.581L818.105 804.321C806.274 806.735 797.775 816.397 797.571 827.667L795.867 921.441H807.717L815.605 830.788L985.037 814.585L991.531 771.581Z" fill="url(#paint27_linear_635_19)"/>
<path d="M851.75 932.102H798.471C797.767 932.102 797.191 931.562 797.191 930.902V924.329C797.191 923.67 797.767 923.13 798.471 923.13H851.75C852.454 923.13 853.03 923.67 853.03 924.329V930.902C853.03 931.562 852.454 932.102 851.75 932.102Z" fill="url(#paint28_linear_635_19)"/>
<path d="M801.247 969.98C816.308 969.98 828.517 958.619 828.517 944.605C828.517 930.591 816.308 919.23 801.247 919.23C786.187 919.23 773.978 930.591 773.978 944.605C773.978 958.619 786.187 969.98 801.247 969.98Z" fill="url(#paint29_linear_635_19)"/>
<path d="M801.248 964.072C812.801 964.072 822.167 955.356 822.167 944.605C822.167 933.854 812.801 925.138 801.248 925.138C789.694 925.138 780.328 933.854 780.328 944.605C780.328 955.356 789.694 964.072 801.248 964.072Z" fill="url(#paint30_linear_635_19)"/>
<path d="M1038.72 644.337C991.847 631.736 977.838 648.926 981.909 699.244V795.328H993.614V681.651C994.632 656.888 1003.41 649.639 1034.37 658.739C1044.34 659.896 1049.51 647.423 1038.72 644.337Z" fill="url(#paint31_linear_635_19)"/>
<path d="M985.858 772.981L852.627 773.733V773.366C852.627 767.313 857.788 762.351 864.29 762.153L980.195 758.626C984.865 758.484 988.419 762.489 987.384 766.73L985.858 772.981Z" fill="url(#paint32_linear_635_19)"/>
<path d="M948.374 985.525C1009.53 985.525 1059.12 939.388 1059.12 882.476C1059.12 825.563 1009.53 779.426 948.374 779.426C887.214 779.426 837.633 825.563 837.633 882.476C837.633 939.388 887.214 985.525 948.374 985.525Z" fill="url(#paint33_linear_635_19)"/>
<path opacity="0.51" d="M950.264 972.512C1002.66 972.512 1045.13 932.989 1045.13 884.234C1045.13 835.48 1002.66 795.957 950.264 795.957C897.87 795.957 855.397 835.48 855.397 884.234C855.397 932.989 897.87 972.512 950.264 972.512Z" fill="url(#paint34_linear_635_19)"/>
<path d="M803.58 686.435L860.046 682.368C862.357 682.201 864.545 683.438 865.611 685.512L907.861 767.776C909.897 771.741 906.956 776.453 902.53 776.314L853.521 774.779C851.627 774.72 849.882 773.732 848.845 772.134L799.137 695.472C796.715 691.737 799.166 686.753 803.58 686.435Z" fill="url(#paint35_linear_635_19)"/>
<path d="M963.971 703.473C957.325 700.5 950.327 697.546 945.587 693.137L923.745 717.026C923.745 717.026 878.808 702.139 868.914 708.823C859.02 715.508 862.904 716.07 863.933 716.252C864.962 716.434 870.698 712.487 870.698 712.487C870.698 712.487 865.334 717.592 867.523 718.25C869.712 718.909 876.316 714.348 876.316 714.348C876.316 714.348 870.324 720.854 873.196 720.493C876.068 720.133 879.061 716.569 879.061 716.569C879.061 716.569 874.503 720.615 876.912 721.219C879.321 721.824 883.874 718.454 883.874 718.454C883.874 718.454 889.105 721.879 892.385 722.458C895.665 723.038 927.155 736.561 933.788 734.426C940.42 732.291 963.971 703.473 963.971 703.473Z" fill="url(#paint36_linear_635_19)"/>
<path d="M774.389 438.097C735.268 449.43 697.318 477.801 702.602 514.021C707.095 544.821 750.787 553.913 777.292 557.159C784.684 558.064 791.402 561.13 796.199 565.769C807.679 576.87 832.271 595.373 859.258 583.057C861.224 582.16 860.345 579.718 858.09 579.79C850.915 580.02 840.734 579.185 833.804 573.731C824.365 566.304 827.783 553.417 839.98 549.403C863.064 541.807 906.621 521.124 900.981 474.254C893.354 410.865 774.389 438.097 774.389 438.097Z" fill="url(#paint37_linear_635_19)"/>
<path d="M798.211 488.651C798.211 488.651 800.137 467.459 826.253 470.961C850.994 474.279 843.073 501.659 808.216 519.084C804.437 520.973 799.756 521.251 795.668 519.845C780.364 514.581 744.717 499.505 764.378 478.569C777.075 465.049 798.211 488.651 798.211 488.651Z" fill="white"/>
<path opacity="0.7" d="M717.583 487.81C717.256 487.81 716.924 487.758 716.603 487.648C715.328 487.21 714.733 486.018 715.275 484.986C729.809 457.319 764.555 445.007 791.146 439.55C792.49 439.271 793.854 439.931 794.195 441.018C794.536 442.104 793.723 443.209 792.38 443.484C766.89 448.716 733.623 460.438 719.894 486.574C719.488 487.346 718.56 487.81 717.583 487.81Z" fill="white"/>
<path opacity="0.7" d="M711.844 516.051C710.619 516.051 709.546 515.324 709.364 514.313C709.334 514.148 708.643 510.189 709.332 504.071C709.458 502.954 710.675 502.128 712.059 502.234C713.439 502.335 714.456 503.323 714.33 504.44C713.694 510.085 714.324 513.693 714.33 513.729C714.53 514.838 713.581 515.868 712.209 516.03C712.086 516.044 711.964 516.051 711.844 516.051Z" fill="white"/>
<path d="M254.434 554.119C254.434 554.119 225.123 617.513 207.085 609.06C189.047 600.608 175.519 530.875 175.519 530.875C175.519 530.875 242.073 512.112 254.434 554.119Z" fill="url(#paint38_linear_635_19)"/>
<path d="M152.379 947.509C152.379 947.509 149.929 960.51 148.728 973.379C148.258 978.408 152.396 982.776 157.778 982.986C176.065 983.699 215.181 985.087 229.217 984.5C231.327 984.412 232.707 982.387 231.926 980.548C231.272 979.007 230.009 977.761 228.401 977.068L163.788 949.238L152.379 947.509Z" fill="url(#paint39_linear_635_19)"/>
<path d="M150.372 939.87L152.341 955.421C152.341 955.421 163.659 960.359 171.389 954.798L166.702 937.469L150.372 939.87Z" fill="url(#paint40_linear_635_19)"/>
<path d="M151.852 647.513C151.001 651.574 147.287 850.165 169.938 939.16C170.307 940.612 169.522 942.109 168.047 942.673C164.573 944.003 157.762 945.93 149.6 946.187C147.072 946.266 144.806 944.727 144.093 942.453C137.618 921.805 106.593 818.351 102.546 719.525C98.0239 609.096 102.546 715.765 102.546 715.765L105.198 647.505L151.852 647.513Z" fill="url(#paint41_linear_635_19)"/>
<path d="M78.0536 954.291C78.0536 954.291 74.1528 960.855 70.3767 978.295C69.6952 981.445 72.0433 984.459 75.4559 984.773C81.4945 985.33 90.7897 986.046 98.2362 985.997C101.668 985.975 104.347 983.174 103.934 979.981C103.109 973.615 100.539 963.17 92.6021 955.03L78.0536 954.291Z" fill="url(#paint42_linear_635_19)"/>
<path d="M74.6282 934.29L79.2283 957.806C79.2283 957.806 83.7767 960.977 92.774 958.679L90.5786 933.376L74.6282 934.29Z" fill="url(#paint43_linear_635_19)"/>
<path d="M62.201 653.607C43.6759 758.385 66.2195 912.575 73.8224 942.753C74.2876 944.601 75.8788 946.017 77.877 946.327C81.2705 946.854 86.8578 947.284 92.3664 945.785C94.2644 945.268 95.5977 943.664 95.6753 941.813C96.6954 917.414 94.8596 767.631 112.12 708.436C112.996 705.436 114.95 702.82 117.655 701.018L151.158 678.696L153.726 642.615L62.201 653.607Z" fill="url(#paint44_linear_635_19)"/>
<path d="M182.283 459.03C114.642 452.69 63.4714 468.734 63.4714 468.734C46.9231 559.227 60.5779 663.605 60.5779 663.605C103.557 674.169 152.04 657.147 152.04 657.147C159.183 619.323 192.512 512.873 192.512 512.873C219.637 509.718 199.324 460.627 182.283 459.03Z" fill="url(#paint45_linear_635_19)"/>
<path d="M134.257 560.516C134.257 560.516 66.8199 589.83 51.0908 571.36C46.6505 566.147 46.8315 559.766 47.8364 554.586C30.3846 546.327 13.7009 544.079 3.90255 543.402C1.33129 556.024 4.44689 571.815 13.304 584.859C45.3655 632.077 142.574 575.596 142.574 575.596L134.257 560.516Z" fill="url(#paint46_linear_635_19)"/>
<path d="M156.49 575.921L180.422 497.596C180.694 496.707 181.503 496.058 182.483 495.952C186.819 495.478 199.383 494.147 213.889 492.997C231.363 491.611 251.654 490.489 263.78 491.444C265.504 491.58 266.546 493.288 265.779 494.742C258.883 507.816 230.52 560.998 216.316 578.421C215.846 578.998 215.118 579.335 214.343 579.329L158.819 578.844C157.203 578.83 156.046 577.377 156.49 575.921Z" fill="url(#paint47_linear_635_19)"/>
<path d="M135.271 580.405C135.271 580.405 130.845 563.348 132.63 557.297C134.416 551.245 137.875 543.464 149.406 545.193C160.936 546.923 174.538 551.475 174.538 551.475C174.538 551.475 173.851 559.357 165.087 556.814L170.522 560.755C170.522 560.755 169.745 567.067 162.343 563.694L167.397 568.921C167.397 568.921 164.218 574.104 158.772 570.78C153.326 567.455 150.715 582.46 135.271 580.405Z" fill="url(#paint48_linear_635_19)"/>
<path d="M253.412 555.027C253.412 555.027 266.83 542.779 268.748 536.763C270.665 530.747 272.144 522.433 261.395 518.157C250.647 513.882 236.542 510.967 236.542 510.967C236.542 510.967 232.656 517.987 241.522 520.195L234.684 520.829C234.684 520.829 231.766 526.563 239.948 527.391L232.704 529.303C232.704 529.303 232.458 535.277 238.957 535.172C245.456 535.066 239.163 549.079 253.412 555.027Z" fill="url(#paint49_linear_635_19)"/>
<path d="M130.774 416.768L113.109 464.643C112.817 465.436 113.165 466.314 113.948 466.721C118.763 469.216 136.111 476.428 157.017 464.005C159.195 462.712 160.677 460.601 161.008 458.204L166.728 416.768H130.774Z" fill="url(#paint50_linear_635_19)"/>
<path d="M180.146 386.015C180.146 386.015 185.793 424.401 178.383 436.578C170.974 448.755 148.766 440.07 133.178 422.759L132.972 383.335L180.146 386.015Z" fill="url(#paint51_linear_635_19)"/>
<path d="M140.712 406.02C141.643 405.962 142.298 405.145 142.087 404.293C141.444 401.703 140.376 396.502 140.963 392.471C140.963 392.471 138.457 389.381 151.083 390.764C163.708 392.147 182.598 394.051 189.857 386.041C196.935 378.232 196.493 352.327 174.549 365.309C173.714 365.804 172.6 365.438 172.305 364.555C171.03 360.744 167.035 352.372 156.674 353.057C146.979 353.698 143.805 359.094 142.792 362.016C142.494 362.875 141.428 363.256 140.6 362.792C136.685 360.594 126.835 356.478 118.323 364.57C111.31 371.236 112.063 376.632 113.496 379.636C113.961 380.609 113.172 381.679 112.036 381.621C108.959 381.465 104.527 382.436 102.509 388.633C99.719 397.201 110.027 399.903 113.03 400.5C113.522 400.598 113.934 400.91 114.122 401.347C115.576 404.723 122.384 419.279 133.803 424.675C134.792 425.142 135.966 424.46 135.988 423.424L136.325 407.589C136.341 406.854 136.954 406.252 137.738 406.203L140.712 406.02Z" fill="url(#paint52_linear_635_19)"/>
<path d="M142.006 408.728C142.006 408.728 132.3 395.936 128.606 402.633C124.913 409.329 136.306 416.814 143.583 416.344L142.006 408.728Z" fill="url(#paint53_linear_635_19)"/>
<path d="M84.7648 519.113L63.4713 468.734C63.4713 468.734 12.7404 501.038 3.3827 542.255C3.21947 542.973 3.77173 543.667 4.55279 543.73C14.5958 544.539 31.5524 547.081 48.167 554.943C52.0019 535.175 84.7648 519.113 84.7648 519.113Z" fill="url(#paint54_linear_635_19)"/>
<path d="M168.938 404.543L167.732 403.042C167.893 402.928 171.691 400.248 175.517 400.778C177.218 401.014 178.63 401.842 179.717 403.238L178.098 404.347C177.328 403.358 176.386 402.8 175.22 402.638C172.275 402.23 168.973 404.517 168.938 404.543Z" fill="url(#paint55_linear_635_19)"/>
<path d="M169.449 403.141C169.449 408.253 165.961 412.396 161.66 412.396C157.358 412.396 153.87 408.253 153.87 403.141C153.87 398.029 157.358 393.886 161.66 393.886C165.961 393.886 169.449 398.029 169.449 403.141Z" fill="url(#paint56_linear_635_19)"/>
<path d="M189.478 403.141C189.478 408.253 186.925 412.396 183.775 412.396C180.626 412.396 178.073 408.253 178.073 403.141C178.073 398.029 180.626 393.886 183.775 393.886C186.925 393.886 189.478 398.029 189.478 403.141Z" fill="url(#paint57_linear_635_19)"/>
<defs>
<linearGradient id="paint0_linear_635_19" x1="1108.24" y1="1111.18" x2="391.452" y2="285.666" gradientUnits="userSpaceOnUse">
<stop stop-color="#DAE3FE"/>
<stop offset="1" stop-color="#E9EFFD"/>
</linearGradient>
<linearGradient id="paint1_linear_635_19" x1="408.478" y1="104.057" x2="401.992" y2="1022.69" gradientUnits="userSpaceOnUse">
<stop stop-color="#DAE3FE"/>
<stop offset="1" stop-color="#E9EFFD"/>
</linearGradient>
<linearGradient id="paint2_linear_635_19" x1="310.485" y1="686.286" x2="1178.44" y2="73.2687" gradientUnits="userSpaceOnUse">
<stop stop-color="#09005D"/>
<stop offset="1" stop-color="#1A0F91"/>
</linearGradient>
<linearGradient id="paint3_linear_635_19" x1="973.752" y1="503.597" x2="979.035" y2="503.597" gradientUnits="userSpaceOnUse">
<stop stop-color="#DAE3FE"/>
<stop offset="1" stop-color="#E9EFFD"/>
</linearGradient>
<linearGradient id="paint4_linear_635_19" x1="665.79" y1="380.543" x2="982.052" y2="380.543" gradientUnits="userSpaceOnUse">
<stop stop-color="#DAE3FE"/>
<stop offset="1" stop-color="#E9EFFD"/>
</linearGradient>
<linearGradient id="paint5_linear_635_19" x1="518.679" y1="806.111" x2="373.212" y2="150.758" gradientUnits="userSpaceOnUse">
<stop stop-color="#09005D"/>
<stop offset="1" stop-color="#1A0F91"/>
</linearGradient>
<linearGradient id="paint6_linear_635_19" x1="389.707" y1="497.049" x2="147.01" y2="911.386" gradientUnits="userSpaceOnUse">
<stop stop-color="#09005D"/>
<stop offset="1" stop-color="#1A0F91"/>
</linearGradient>
<linearGradient id="paint7_linear_635_19" x1="335.44" y1="743.603" x2="554.171" y2="1171.79" gradientUnits="userSpaceOnUse">
<stop stop-color="#09005D"/>
<stop offset="1" stop-color="#1A0F91"/>
</linearGradient>
<linearGradient id="paint8_linear_635_19" x1="820.692" y1="641.343" x2="878.318" y2="715.597" gradientUnits="userSpaceOnUse">
<stop stop-color="#FEBBBA"/>
<stop offset="1" stop-color="#FF928E"/>
</linearGradient>
<linearGradient id="paint9_linear_635_19" x1="816.904" y1="644.277" x2="874.525" y2="718.524" gradientUnits="userSpaceOnUse">
<stop stop-color="#FEBBBA"/>
<stop offset="1" stop-color="#FF928E"/>
</linearGradient>
<linearGradient id="paint10_linear_635_19" x1="825.466" y1="659.535" x2="834.546" y2="659.535" gradientUnits="userSpaceOnUse">
<stop stop-color="#FF928E"/>
<stop offset="1" stop-color="#FE7062"/>
</linearGradient>
<linearGradient id="paint11_linear_635_19" x1="-690.321" y1="-2346.21" x2="-630.828" y2="-2219.26" gradientUnits="userSpaceOnUse">
<stop stop-color="#FF928E"/>
<stop offset="1" stop-color="#FE7062"/>
</linearGradient>
<linearGradient id="paint12_linear_635_19" x1="-1606.73" y1="-4112.84" x2="-1547.23" y2="-3985.88" gradientUnits="userSpaceOnUse">
<stop stop-color="#E1473D"/>
<stop offset="1" stop-color="#E9605A"/>
</linearGradient>
<linearGradient id="paint13_linear_635_19" x1="878.953" y1="633.915" x2="917.417" y2="553.482" gradientUnits="userSpaceOnUse">
<stop stop-color="#FEBBBA"/>
<stop offset="1" stop-color="#FF928E"/>
</linearGradient>
<linearGradient id="paint14_linear_635_19" x1="946.656" y1="685.109" x2="926.497" y2="604.447" gradientUnits="userSpaceOnUse">
<stop stop-color="#FEBBBA"/>
<stop offset="1" stop-color="#FF928E"/>
</linearGradient>
<linearGradient id="paint15_linear_635_19" x1="743.302" y1="30.7337" x2="832.812" y2="338.323" gradientUnits="userSpaceOnUse">
<stop stop-color="#09005D"/>
<stop offset="1" stop-color="#1A0F91"/>
</linearGradient>
<linearGradient id="paint16_linear_635_19" x1="908.345" y1="639.35" x2="938.921" y2="575.411" gradientUnits="userSpaceOnUse">
<stop stop-color="#FEBBBA"/>
<stop offset="1" stop-color="#FF928E"/>
</linearGradient>
<linearGradient id="paint17_linear_635_19" x1="687.893" y1="67.877" x2="807.09" y2="366.951" gradientUnits="userSpaceOnUse">
<stop stop-color="#09005D"/>
<stop offset="1" stop-color="#1A0F91"/>
</linearGradient>
<linearGradient id="paint18_linear_635_19" x1="933.333" y1="650.291" x2="963.429" y2="587.355" gradientUnits="userSpaceOnUse">
<stop stop-color="#FEBBBA"/>
<stop offset="1" stop-color="#FF928E"/>
</linearGradient>
<linearGradient id="paint19_linear_635_19" x1="745.819" y1="937.376" x2="904.124" y2="638.816" gradientUnits="userSpaceOnUse">
<stop stop-color="#4F52FF"/>
<stop offset="1" stop-color="#4042E2"/>
</linearGradient>
<linearGradient id="paint20_linear_635_19" x1="783.745" y1="785.437" x2="809.166" y2="816.142" gradientUnits="userSpaceOnUse">
<stop stop-color="#FEBBBA"/>
<stop offset="1" stop-color="#FF928E"/>
</linearGradient>
<linearGradient id="paint21_linear_635_19" x1="750.137" y1="824.594" x2="760.727" y2="870.926" gradientUnits="userSpaceOnUse">
<stop stop-color="#09005D"/>
<stop offset="1" stop-color="#1A0F91"/>
</linearGradient>
<linearGradient id="paint22_linear_635_19" x1="828.399" y1="502.061" x2="844.852" y2="680.811" gradientUnits="userSpaceOnUse">
<stop stop-color="#4F52FF"/>
<stop offset="1" stop-color="#4042E2"/>
</linearGradient>
<linearGradient id="paint23_linear_635_19" x1="927.612" y1="903.892" x2="995.198" y2="739.057" gradientUnits="userSpaceOnUse">
<stop stop-color="#09005D"/>
<stop offset="1" stop-color="#1A0F91"/>
</linearGradient>
<linearGradient id="paint24_linear_635_19" x1="826.922" y1="801.331" x2="847.614" y2="871.248" gradientUnits="userSpaceOnUse">
<stop stop-color="#FEBBBA"/>
<stop offset="1" stop-color="#FF928E"/>
</linearGradient>
<linearGradient id="paint25_linear_635_19" x1="801.115" y1="871.81" x2="848.761" y2="798.765" gradientUnits="userSpaceOnUse">
<stop stop-color="#09005D"/>
<stop offset="1" stop-color="#1A0F91"/>
</linearGradient>
<linearGradient id="paint26_linear_635_19" x1="888.622" y1="795.608" x2="1049.5" y2="963.867" gradientUnits="userSpaceOnUse">
<stop stop-color="#4F52FF"/>
<stop offset="1" stop-color="#4042E2"/>
</linearGradient>
<linearGradient id="paint27_linear_635_19" x1="1059.79" y1="618.804" x2="1012.32" y2="682.412" gradientUnits="userSpaceOnUse">
<stop stop-color="#09005D"/>
<stop offset="1" stop-color="#1A0F91"/>
</linearGradient>
<linearGradient id="paint28_linear_635_19" x1="808.121" y1="889.763" x2="834.946" y2="957.807" gradientUnits="userSpaceOnUse">
<stop stop-color="#09005D"/>
<stop offset="1" stop-color="#1A0F91"/>
</linearGradient>
<linearGradient id="paint29_linear_635_19" x1="795.252" y1="1034.5" x2="801.566" y2="926.711" gradientUnits="userSpaceOnUse">
<stop stop-color="#09005D"/>
<stop offset="1" stop-color="#1A0F91"/>
</linearGradient>
<linearGradient id="paint30_linear_635_19" x1="822.776" y1="907.685" x2="786.542" y2="978.434" gradientUnits="userSpaceOnUse">
<stop stop-color="#4F52FF"/>
<stop offset="1" stop-color="#4042E2"/>
</linearGradient>
<linearGradient id="paint31_linear_635_19" x1="1047.93" y1="565.343" x2="936.611" y2="914.305" gradientUnits="userSpaceOnUse">
<stop stop-color="#4F52FF"/>
<stop offset="1" stop-color="#4042E2"/>
</linearGradient>
<linearGradient id="paint32_linear_635_19" x1="1443.62" y1="391.607" x2="1211.59" y2="582.449" gradientUnits="userSpaceOnUse">
<stop stop-color="#09005D"/>
<stop offset="1" stop-color="#1A0F91"/>
</linearGradient>
<linearGradient id="paint33_linear_635_19" x1="1033.23" y1="950.918" x2="846.636" y2="779.572" gradientUnits="userSpaceOnUse">
<stop stop-color="#09005D"/>
<stop offset="1" stop-color="#1A0F91"/>
</linearGradient>
<linearGradient id="paint34_linear_635_19" x1="996.643" y1="724.859" x2="929.815" y2="986.317" gradientUnits="userSpaceOnUse">
<stop stop-color="#4F52FF"/>
<stop offset="1" stop-color="#4042E2"/>
</linearGradient>
<linearGradient id="paint35_linear_635_19" x1="809.967" y1="811.574" x2="906.976" y2="607.39" gradientUnits="userSpaceOnUse">
<stop stop-color="#09005D"/>
<stop offset="1" stop-color="#1A0F91"/>
</linearGradient>
<linearGradient id="paint36_linear_635_19" x1="1016.23" y1="729.102" x2="583.032" y2="633.298" gradientUnits="userSpaceOnUse">
<stop stop-color="#FEBBBA"/>
<stop offset="1" stop-color="#FF928E"/>
</linearGradient>
<linearGradient id="paint37_linear_635_19" x1="518.991" y1="801.696" x2="834.216" y2="435.97" gradientUnits="userSpaceOnUse">
<stop stop-color="#E1473D"/>
<stop offset="1" stop-color="#E9605A"/>
</linearGradient>
<linearGradient id="paint38_linear_635_19" x1="175.519" y1="568.267" x2="254.434" y2="568.267" gradientUnits="userSpaceOnUse">
<stop stop-color="#FEBBBA"/>
<stop offset="1" stop-color="#FF928E"/>
</linearGradient>
<linearGradient id="paint39_linear_635_19" x1="189.028" y1="834.44" x2="190.51" y2="1008.38" gradientUnits="userSpaceOnUse">
<stop stop-color="#4F52FF"/>
<stop offset="1" stop-color="#4042E2"/>
</linearGradient>
<linearGradient id="paint40_linear_635_19" x1="150.372" y1="947.455" x2="171.389" y2="947.455" gradientUnits="userSpaceOnUse">
<stop stop-color="#FEBBBA"/>
<stop offset="1" stop-color="#FF928E"/>
</linearGradient>
<linearGradient id="paint41_linear_635_19" x1="126.625" y1="1022.4" x2="139.227" y2="661.619" gradientUnits="userSpaceOnUse">
<stop stop-color="#4F52FF"/>
<stop offset="1" stop-color="#4042E2"/>
</linearGradient>
<linearGradient id="paint42_linear_635_19" x1="85.7139" y1="835.32" x2="87.196" y2="1009.26" gradientUnits="userSpaceOnUse">
<stop stop-color="#4F52FF"/>
<stop offset="1" stop-color="#4042E2"/>
</linearGradient>
<linearGradient id="paint43_linear_635_19" x1="74.6281" y1="946.445" x2="92.7739" y2="946.445" gradientUnits="userSpaceOnUse">
<stop stop-color="#FEBBBA"/>
<stop offset="1" stop-color="#FF928E"/>
</linearGradient>
<linearGradient id="paint44_linear_635_19" x1="91.15" y1="1021.16" x2="103.751" y2="660.381" gradientUnits="userSpaceOnUse">
<stop stop-color="#4F52FF"/>
<stop offset="1" stop-color="#4042E2"/>
</linearGradient>
<linearGradient id="paint45_linear_635_19" x1="-2244.57" y1="-3881.79" x2="-2185.08" y2="-3754.83" gradientUnits="userSpaceOnUse">
<stop stop-color="#FF928E"/>
<stop offset="1" stop-color="#FE7062"/>
</linearGradient>
<linearGradient id="paint46_linear_635_19" x1="3.03109" y1="573.545" x2="142.574" y2="573.545" gradientUnits="userSpaceOnUse">
<stop stop-color="#FEBBBA"/>
<stop offset="1" stop-color="#FF928E"/>
</linearGradient>
<linearGradient id="paint47_linear_635_19" x1="176.597" y1="459.025" x2="216.7" y2="559.418" gradientUnits="userSpaceOnUse">
<stop stop-color="#09005D"/>
<stop offset="1" stop-color="#1A0F91"/>
</linearGradient>
<linearGradient id="paint48_linear_635_19" x1="132.206" y1="562.774" x2="174.538" y2="562.774" gradientUnits="userSpaceOnUse">
<stop stop-color="#FEBBBA"/>
<stop offset="1" stop-color="#FF928E"/>
</linearGradient>
<linearGradient id="paint49_linear_635_19" x1="266.003" y1="541.615" x2="231.487" y2="518.523" gradientUnits="userSpaceOnUse">
<stop stop-color="#FEBBBA"/>
<stop offset="1" stop-color="#FF928E"/>
</linearGradient>
<linearGradient id="paint50_linear_635_19" x1="113.006" y1="443.921" x2="166.729" y2="443.921" gradientUnits="userSpaceOnUse">
<stop stop-color="#FEBBBA"/>
<stop offset="1" stop-color="#FF928E"/>
</linearGradient>
<linearGradient id="paint51_linear_635_19" x1="175.326" y1="426.384" x2="135.633" y2="373.121" gradientUnits="userSpaceOnUse">
<stop stop-color="#FEBBBA"/>
<stop offset="1" stop-color="#FF928E"/>
</linearGradient>
<linearGradient id="paint52_linear_635_19" x1="115.975" y1="332.13" x2="162.231" y2="412.456" gradientUnits="userSpaceOnUse">
<stop stop-color="#09005D"/>
<stop offset="1" stop-color="#1A0F91"/>
</linearGradient>
<linearGradient id="paint53_linear_635_19" x1="156.134" y1="433.202" x2="120.423" y2="385.282" gradientUnits="userSpaceOnUse">
<stop stop-color="#FEBBBA"/>
<stop offset="1" stop-color="#FF928E"/>
</linearGradient>
<linearGradient id="paint54_linear_635_19" x1="-2294.82" y1="-3858.24" x2="-2235.33" y2="-3731.28" gradientUnits="userSpaceOnUse">
<stop stop-color="#FF928E"/>
<stop offset="1" stop-color="#FE7062"/>
</linearGradient>
<linearGradient id="paint55_linear_635_19" x1="177.455" y1="400.464" x2="170.346" y2="406.268" gradientUnits="userSpaceOnUse">
<stop stop-color="#09005D"/>
<stop offset="1" stop-color="#1A0F91"/>
</linearGradient>
<linearGradient id="paint56_linear_635_19" x1="208.375" y1="369.641" x2="115.655" y2="445.341" gradientUnits="userSpaceOnUse">
<stop stop-color="#09005D"/>
<stop offset="1" stop-color="#1A0F91"/>
</linearGradient>
<linearGradient id="paint57_linear_635_19" x1="224.529" y1="373.916" x2="143.641" y2="439.956" gradientUnits="userSpaceOnUse">
<stop stop-color="#09005D"/>
<stop offset="1" stop-color="#1A0F91"/>
</linearGradient>
</defs>
</svg>
